<?xml version="1.0" encoding="utf-8"?>
<!-- Generator: Adobe Illustrator 18.1.1, SVG Export Plug-In . SVG Version: 6.00 Build 0)  -->
<svg version="1.1" id="Capa_1" xmlns="http://www.w3.org/2000/svg" xmlns:xlink="http://www.w3.org/1999/xlink" x="0px" y="0px"
	 viewBox="0 0 141 131" enable-background="new 0 0 141 131" xml:space="preserve">
<g>
	<g id="c138_play">
		<linearGradient id="SVGID_1_" gradientUnits="userSpaceOnUse" x1="70.5" y1="129" x2="70.5" y2="-1.550294e-02">
			<stop  offset="0" style="stop-color:#B2B2B2"/>
			<stop  offset="1" style="stop-color:#DADADA"/>
		</linearGradient>
		<path fill="url(#SVGID_1_)" d="M70.5,0C34.3,0,5,29.3,5,65.5C5,101.7,34.3,131,70.5,131c36.2,0,65.5-29.3,65.5-65.5
			C136,29.3,106.7,0,70.5,0z M109.4,66.9L52,103.5c-0.3,0.3-0.7,0.4-1.1,0.4l-0.8-0.2c-0.6-0.3-0.9-0.9-0.9-1.5V28.8
			c0-0.7,0.4-1.3,0.9-1.5c0.6-0.3,1.3-0.2,1.9,0.2l57.4,36.7c0.4,0.3,0.7,0.8,0.7,1.4C110,66,109.8,66.5,109.4,66.9z"/>
	</g>
</g>
</svg>
